<svg width="51" height="93" viewBox="0 0 51 93" fill="none" xmlns="http://www.w3.org/2000/svg">
<path fill-rule="evenodd" clip-rule="evenodd" d="M44.9748 7.55168C44.9748 3.90608 41.9988 0.967285 38.3904 0.967285H6.5844C2.9388 0.967285 0 3.94328 0 7.55168V85.4485C0 89.0941 2.976 92.0329 6.5844 92.0329H38.3532C41.9988 92.0329 44.9376 89.0569 44.9376 85.4485L44.9748 7.55168ZM39.5436 85.4485C39.5436 86.0809 39.0228 86.6017 38.3904 86.6017H6.5844C5.952 86.6017 5.4312 86.0809 5.4312 85.4485V7.55168C5.4312 6.91928 5.952 6.39849 6.5844 6.39849H38.3532C38.9856 6.39849 39.5064 6.91928 39.5064 7.55168L39.5436 85.4485ZM16.74 2.30649H28.272C29.016 2.30649 29.6484 2.90168 29.6484 3.68288C29.6484 4.42688 29.0532 5.05929 28.272 5.05929H16.74C15.996 5.05929 15.3636 4.46408 15.3636 3.68288C15.3636 2.90168 15.996 2.30649 16.74 2.30649Z" fill="#750AAF"/>
<path d="M26.71 71.7445V63.7647C26.71 63.3847 26.4177 63.0924 26.0377 63.0924C25.6577 63.0924 25.3654 63.3847 25.3654 63.7647V71.7737C25.3654 72.1537 25.6577 72.446 26.0377 72.446C26.4177 72.446 26.71 72.1244 26.71 71.7445Z" fill="#750AAF"/>
<path d="M30.042 69.7568V60.4324C30.042 60.1401 29.8958 59.9355 29.662 59.8478C29.5743 59.8186 29.4866 59.7894 29.3697 59.7894C28.9897 59.7894 28.6974 60.0817 28.6974 60.4617V69.786C28.6974 70.166 28.9897 70.4583 29.3697 70.4583C29.7497 70.4583 30.042 70.1368 30.042 69.7568Z" fill="#750AAF"/>
<path d="M44.394 42.7485C43.7217 39.5624 41.7925 36.8732 39.1618 35.1779C38.2557 34.5641 37.2619 34.0964 36.2096 33.7748C35.0112 33.3656 33.725 33.161 32.4097 33.161C27.499 33.161 23.1438 35.9963 21.2146 40.3516C20.7469 40.2639 20.3085 40.2347 19.8408 40.2347C15.6316 40.2347 12.2117 43.5669 12.0656 47.6883C8.90874 48.6822 6.68726 51.6344 6.68726 54.9958C6.68726 59.2342 10.1656 62.6833 14.4624 62.6833H24.1084V56.8958H19.5485C19.11 56.8958 18.7593 56.6327 18.5839 56.2527C18.4377 55.8727 18.5254 55.4635 18.847 55.2005L28.1713 46.753C28.5513 46.4022 29.1652 46.4022 29.5451 46.753L36.2388 52.8036L38.8695 55.2005C39.0741 55.4051 39.1911 55.6681 39.1911 55.9312C39.1911 56.0481 39.1618 56.1651 39.1326 56.2527C38.9572 56.662 38.6065 56.8958 38.168 56.8958H33.6081V62.6833H40.5356C46.294 62.6833 51 58.0358 51 52.3651C50.9708 48.0976 48.3108 44.2977 44.394 42.7485Z" fill="#750AAF"/>
</svg>
