<svg width="62" height="55" viewBox="0 0 62 55" fill="none" xmlns="http://www.w3.org/2000/svg">
<path d="M53.45 0H7.85C3.55 0 0 3.5 0 7.85V35.6C0 39.9 3.5 43.45 7.85 43.45H12.4L18.2 53.65C18.65 54.45 19.5 54.95 20.4 54.95C21.3 54.95 22.15 54.45 22.6 53.65L28.4 43.45H53.35C57.65 43.45 61.2 39.95 61.2 35.6V7.85C61.3 3.5 57.75 0 53.45 0ZM12.8 9.5H9.35V12.4H5.3V5.4H12.8V9.5ZM48.15 5.45H55.65V12.45H51.6V9.55H48.15V5.45ZM12.8 37.95H5.3V30.95H9.35V33.85H12.8V37.95ZM48.15 33.85H51.6V30.95H55.65V37.95H48.15V33.85Z" fill="#750AAF"/>
</svg>
