<svg width="72" height="76" viewBox="0 0 72 76" fill="none" xmlns="http://www.w3.org/2000/svg">
<path d="M18.1695 9.58556C18.3236 9.58556 18.4469 9.58556 18.601 9.58556C19.2483 8.87666 20.2654 8.38351 21.7449 8.38351H24.0873C24.3647 8.35269 24.5805 8.35269 24.7962 8.35269C25.9983 8.35269 27.0154 8.69173 27.7859 9.36981C28.125 9.67803 28.3715 9.98624 28.5873 10.2636C29.0496 10.6027 29.3578 10.9417 29.6044 11.1575C29.6352 11.1883 29.666 11.2191 29.7277 11.2808L29.8202 11.3424C30.0667 11.4965 30.3441 11.6506 30.5907 11.8355C31.4845 12.4828 31.8852 13.1917 32.101 13.654C32.2242 13.8081 32.3784 13.9931 32.5016 14.2396C32.6866 14.1164 32.8715 14.0547 33.0256 13.9931C33.0256 13.9931 33.1181 13.9622 33.2722 13.9006C33.7653 13.6232 34.2585 13.4691 34.6283 13.4075L34.9057 13.3766H35.1831C35.7996 13.3766 36.2619 13.5307 36.5701 13.654L36.94 13.6849C37.6797 13.6849 38.2345 13.8698 38.6968 14.1164H39.1283L39.9913 15.0102C39.9913 15.0102 40.7311 15.7499 40.8543 15.8732C41.4399 16.4896 41.9023 17.0444 42.303 18.0307C42.4879 18.4314 42.6728 18.8013 42.8577 19.1095C42.9502 19.2328 43.0427 19.3561 43.166 19.4793C43.2893 19.6026 43.3817 19.7567 43.505 19.88C44.2139 20.3732 44.7379 21.0512 45.0461 21.8834C45.1694 22.2841 45.2618 22.654 45.2618 23.0547C45.2927 23.0855 45.2927 23.1163 45.3235 23.1471C45.3235 23.1471 45.6009 23.2704 45.6625 23.3012C46.1865 23.3012 46.6488 23.3937 47.0803 23.5478H48.4673L49.4228 24.2567L50.9331 25.3971L50.8406 27.3389C50.7173 28.7567 50.1933 29.8971 49.7926 30.6985C49.7618 30.7601 49.731 30.7909 49.731 30.8526C49.6694 31.2532 49.6077 31.6847 49.5461 32.0854C49.4536 32.6094 49.3611 33.1025 49.3611 33.5032C49.3611 33.5957 49.3611 33.719 49.3611 33.8114C49.392 34.3354 49.4228 35.0443 49.2379 35.8765C49.3611 36.0306 49.4844 36.2155 49.5769 36.3697C50.2241 37.3251 50.4091 38.2498 50.3474 39.0203C50.7481 39.5443 51.1796 40.0991 51.5495 40.5922C52.0426 41.2395 52.2584 41.8867 52.3817 42.3491C52.4433 42.4107 52.4741 42.4415 52.5358 42.5032C52.9981 42.6265 53.3371 42.7806 53.707 42.9347C53.707 42.9347 53.9228 43.058 53.9844 43.0888C54.1385 43.1504 54.2926 43.2121 54.4467 43.3045L54.6317 43.2429H54.6008C54.6008 43.2429 54.6625 43.2121 54.7549 43.2121C55.0015 43.1504 55.433 43.058 55.8954 43.0271C55.957 43.0271 56.0186 43.0271 56.1111 43.0271C56.4193 42.873 56.7892 42.6881 57.2207 42.5956C57.6522 42.4724 58.1145 42.3799 58.546 42.3491C58.9159 41.4552 59.2857 40.5614 59.6248 39.6368V39.5751L59.8097 39.1436C59.8405 39.082 59.8405 39.0511 59.8714 38.9895C61.4124 34.7053 62.3679 30.4211 62.3679 26.3834C62.3679 11.8047 50.5632 0 35.9845 0C27.7859 0 20.4503 3.76025 15.6113 9.61638C15.9195 9.6472 16.2894 9.67803 16.7209 9.67803C17.1832 9.61638 17.6764 9.58556 18.1695 9.58556Z" fill="#750AAF"/>
<path d="M48.4366 57.2355C47.8201 57.2355 47.2345 57.1122 46.6181 56.8656C46.3715 56.7732 46.1558 56.6499 45.9708 56.5574C45.7551 56.5574 45.5701 56.5266 45.3544 56.4958C44.4297 56.3109 43.8441 55.9718 43.4126 55.6328C42.9811 55.5095 42.2722 55.2629 41.5633 54.7081C41.5633 54.7081 41.5633 54.7081 41.5325 54.7081C41.1935 54.6465 40.7928 54.5848 40.3613 54.4615C39.8373 54.3383 39.3441 54.0917 38.851 53.7526C38.7585 53.7218 38.6969 53.691 38.6352 53.6602C38.2962 53.5369 37.9572 53.3828 37.649 53.2287C37.4332 53.1362 37.2483 53.0437 37.0633 52.9513C36.3544 52.6739 35.8305 52.304 35.399 51.9958L35.1524 51.8109C34.9058 51.6568 34.7209 51.4718 34.536 51.3177C34.1353 51.2561 33.7962 51.1328 33.5497 51.0712C32.8716 50.917 32.3476 50.6397 32.0086 50.4855L31.8545 50.4239C31.0839 50.1465 30.4367 49.8691 29.6353 49.0677C29.4812 48.9136 29.2346 48.6979 29.0189 48.3897C28.8956 48.2972 28.7415 48.2356 28.6182 48.1123L28.31 47.9582C27.2004 47.5267 26.2757 46.8178 25.6593 45.8931L25.5668 45.7698C25.4127 45.5849 25.2278 45.3691 25.0429 45.1534C24.6114 44.5678 24.3648 44.013 24.149 43.5815C23.8408 43.0267 23.3168 41.9787 23.6559 40.6226L23.2552 39.6671L24.0566 38.8349C23.9949 38.6808 23.9333 38.5267 23.9025 38.3726H23.8408L23.286 37.0781C23.2552 37.0164 23.1936 36.9856 23.1627 36.924C22.9778 36.7699 22.7929 36.5849 22.5771 36.3075C22.2689 35.9377 21.9299 35.5062 21.6525 35.1055C21.2826 36.1843 20.4812 37.1706 19.3717 37.8178C18.6319 38.2493 17.8922 38.4651 17.1217 38.4651H16.4744L15.7347 38.2185C14.2553 37.6329 13.7005 36.4617 13.4231 35.7528C12.9299 35.4137 12.5601 35.013 12.2827 34.7048C11.697 34.6123 11.1731 34.3658 10.6799 34.0267C15.5498 53.2903 35.9538 75.4512 35.9538 75.4512C35.9538 75.4512 43.4434 67.53 50.44 56.9273C50.0393 57.0506 49.6386 57.143 49.2379 57.1739C48.8989 57.2355 48.6831 57.2355 48.4366 57.2355Z" fill="#750AAF"/>
<path d="M71.7993 39.4216C71.6143 39.3599 71.6143 39.2674 71.6451 39.1133C71.6451 39.0209 71.676 38.8976 71.6143 38.8051C71.5835 38.7435 71.3061 38.4661 71.3061 38.4661C71.2753 38.4353 71.2445 38.4353 71.2445 38.4044C71.152 38.312 71.0904 38.2503 70.9054 38.2195C70.8438 38.2195 70.1657 38.4353 70.1349 38.4661C70.1349 38.4661 70.1041 38.4969 70.1041 38.5277C70.1041 38.5585 70.1041 38.5585 70.1349 38.5894C70.0732 38.5585 70.0424 38.5585 70.0116 38.5277C69.8883 38.4353 69.7342 38.4353 69.5801 38.4661C69.4876 38.4661 69.426 38.4661 69.3335 38.4661C69.2411 38.4353 69.1486 38.4353 69.0869 38.4044C68.8404 38.3428 68.6246 38.2811 68.3164 38.312C67.9465 38.3428 67.6075 38.4661 67.2993 38.5894C67.0527 38.6818 66.837 38.7743 66.5596 38.8359C66.3746 38.8668 66.0972 38.8976 65.8198 38.9284C64.7719 39.0517 63.3541 39.2058 63.1383 40.1921L63.0767 40.4078C62.9534 40.9626 62.861 41.4866 62.8301 42.103C62.8301 42.1955 62.8301 42.288 62.861 42.3496C62.8918 42.4729 62.8918 42.5654 62.7685 42.7195C62.7068 42.8119 62.6452 42.8428 62.5836 42.9044C62.4911 42.966 62.3986 43.0585 62.337 43.2434C62.2753 43.3976 62.2753 43.5517 62.2753 43.7058C62.2753 43.8907 62.2753 44.0448 62.1829 44.1989C62.0904 44.353 61.9055 44.4763 61.7205 44.5996C61.6589 44.6304 61.5973 44.6921 61.5664 44.7229C61.4432 44.8154 60.8267 45.2469 60.5801 45.4318C60.4877 45.4934 60.4569 45.5243 60.4569 45.5243C60.4569 45.5243 60.4569 45.5243 60.426 45.5243C60.2411 45.4934 59.9637 45.7092 59.7788 45.8325C59.748 45.8633 59.7171 45.8633 59.7171 45.8941C59.6863 45.9249 59.6863 45.9558 59.6863 45.9866C59.7171 46.0174 59.748 46.079 59.8404 46.079C59.8712 46.079 59.9021 46.079 59.9329 46.079C60.087 46.0482 60.4569 45.74 60.4877 45.6167C60.5493 45.6475 60.6418 45.6475 60.7034 45.6475C60.8575 45.6475 60.9192 45.6475 60.9808 45.74C61.0425 45.8941 60.95 45.9558 60.8267 46.079C60.7959 46.1099 60.7651 46.1407 60.7342 46.1715C60.7034 46.2023 60.7034 46.2332 60.6726 46.2332C60.5493 46.3564 60.5185 46.4181 60.3644 46.4181C60.3027 46.4181 60.2103 46.3873 60.1178 46.3564C60.0562 46.3256 59.9945 46.2948 59.9329 46.2948C59.9021 46.2948 59.8404 46.2948 59.8096 46.3256C59.8096 46.3256 59.8096 46.3256 59.7788 46.3564C59.748 46.3256 59.748 46.3256 59.7171 46.2948C59.6863 46.264 59.6247 46.2023 59.563 46.1715C59.5938 46.1715 59.5938 46.1715 59.6247 46.1715C59.6863 46.1407 59.6863 46.1099 59.6863 46.079C59.6863 45.9249 59.2548 45.7092 59.1932 45.7092C58.9466 45.6784 58.2993 45.8017 58.0836 45.8941C57.837 45.9249 57.6829 46.0482 57.5288 46.1715C57.4363 46.2332 57.3439 46.3256 57.2206 46.3873H57.1897C56.8815 46.4797 56.7274 46.5722 56.635 46.603C56.635 46.5722 56.635 46.5105 56.6041 46.4797C56.5733 46.4489 56.5425 46.4489 56.4809 46.4489C56.3267 46.4489 56.1726 46.4489 56.0493 46.4489C55.8336 46.4489 55.6795 46.4797 55.5562 46.5105C55.5254 46.5105 55.4946 46.5414 55.4946 46.5722C55.4329 46.603 55.3096 46.6647 55.248 46.6955H55.2172C55.1247 46.7571 55.063 46.8188 55.0322 46.8496C54.9706 46.8496 54.9089 46.8496 54.8473 46.8496C54.724 46.8496 54.5699 46.8496 54.3233 46.9421C54.2925 46.9421 54.2617 46.9729 54.2309 46.9729C53.9226 47.0962 53.5528 47.2503 53.2754 47.0653C53.1829 47.0037 53.1213 46.8496 53.0596 46.6955C52.998 46.5414 52.9363 46.4181 52.8439 46.3256C52.7514 46.264 52.7206 46.2332 52.6898 46.2332C52.6898 46.2332 52.659 46.2332 52.5357 46.1715C52.4432 46.1099 52.1966 45.9866 52.1658 45.9866C51.8268 45.8016 51.7035 45.74 51.2103 45.7092C50.5014 45.6784 50.4398 45.5551 50.1932 45.1236C50.1624 45.0619 50.1007 44.9695 50.0699 44.9078C49.9775 44.7537 49.8542 44.6304 49.7001 44.4763C49.546 44.3222 49.4227 44.1681 49.2994 44.014C49.1453 43.7982 49.1145 43.5825 49.0528 43.3359C48.9912 43.0585 48.9295 42.8119 48.7446 42.5654C48.4056 42.103 48.0049 41.5791 47.6042 41.0551C47.2343 40.5928 46.9878 40.0072 46.772 39.4216C46.7412 39.2983 46.6795 39.2058 46.6487 39.0825C46.6487 39.0825 46.6487 39.0825 46.6795 39.0825C46.7104 39.0825 46.7104 39.0825 46.7412 39.0517C46.9878 38.6202 46.9569 38.4969 46.7412 38.1887L46.7104 38.1579C46.6179 38.0037 46.248 37.4798 46.0939 37.449C46.0631 37.449 46.0631 37.449 46.0323 37.449C46.0015 37.449 46.0015 37.4798 46.0015 37.5106C46.0015 37.6647 46.1556 37.8496 46.3097 38.0654C46.433 38.2195 46.6487 38.4969 46.5871 38.5585C46.5871 38.5585 46.5562 38.5894 46.433 38.5894C46.4021 38.5894 46.4021 38.5894 46.3713 38.6202C46.3713 38.5894 46.3405 38.5894 46.3405 38.5585C46.2172 38.3736 46.1247 38.2195 46.0631 38.0037C45.9706 37.6339 45.8782 37.1407 45.8165 36.7092C45.8165 36.5551 45.7549 36.401 45.7241 36.2469C45.6932 36.0928 45.6624 35.9387 45.6316 35.7846C45.6008 35.538 45.6316 35.4147 45.7241 35.1681L45.7549 35.0757C45.8782 34.675 45.8473 34.2435 45.8165 33.8428C45.8165 33.6579 45.7857 33.4421 45.7857 33.2572C45.7857 32.6099 45.909 31.9627 46.0323 31.3463C46.1247 30.8839 46.1864 30.3908 46.248 29.8976C46.248 29.8668 46.2172 29.836 46.1864 29.836C46.1556 29.836 46.1247 29.836 46.1247 29.8668C46.0631 30.0517 46.0015 30.2059 45.9706 30.3908C45.9706 30.36 45.9706 30.2983 45.9398 30.2675C45.9398 30.175 45.909 30.0826 45.909 29.9593C45.909 29.9285 45.9706 29.8976 45.9706 29.8668C46.0323 29.8052 46.0939 29.7743 46.0939 29.6819C46.0939 29.6202 46.0015 29.5278 45.9398 29.4661C45.9398 29.4353 45.9398 29.3737 45.9398 29.3428C45.9398 29.1579 45.909 28.788 46.0015 28.6648V28.6956C46.0323 28.7572 46.0939 28.7881 46.0939 28.7881C46.2172 28.7881 46.3097 28.5415 46.3405 28.3874C46.3713 28.3874 46.3713 28.4182 46.4021 28.4182C46.5254 28.6031 46.3097 29.2504 46.1864 29.5278C46.1556 29.5894 46.1556 29.6511 46.1247 29.6819C46.1247 29.7127 46.1247 29.7435 46.1556 29.7743C46.1864 29.7743 46.2172 29.7743 46.248 29.7435C46.3405 29.5278 46.433 29.312 46.5562 29.0963C46.8645 28.4182 47.2035 27.7401 47.2651 27.0004C47.2651 26.9696 47.2651 26.9696 47.2343 26.9387C47.2035 26.9387 47.2035 26.9079 47.1727 26.9387C47.0802 26.9696 46.9878 27.0312 46.9261 27.062C46.6487 27.1853 46.5254 27.2778 46.248 27.0929C46.1864 27.062 46.1556 27.0004 46.0939 26.9387C46.0323 26.8771 45.9706 26.7846 45.8782 26.7538C45.7241 26.6922 45.5083 26.6922 45.2926 26.6922C45.2001 26.6922 45.1076 26.6922 45.046 26.6922C44.7069 26.6614 44.4604 26.5381 44.183 26.4148C44.0905 26.384 43.998 26.3223 43.9056 26.2915C43.7823 26.2298 43.659 26.1682 43.5357 26.1066C43.3816 26.0141 43.1967 25.9525 43.0117 25.86C42.9501 25.8292 42.8576 25.7983 42.8268 25.7983C42.6419 25.7367 42.6111 25.7367 42.5186 25.4901C42.3337 25.0894 42.1796 24.6888 41.9946 24.3189C41.9638 24.2573 41.933 24.1956 41.9022 24.134C41.8097 23.9182 41.6556 23.6408 41.6556 23.4559C41.6556 23.3942 41.6556 23.3326 41.6864 23.271C41.7172 23.1785 41.7481 23.086 41.6864 22.9319C41.5939 22.6853 41.4707 22.6237 41.3165 22.5621C41.2549 22.5312 41.2241 22.5312 41.1624 22.4696C41.07 22.408 41.0083 22.3463 40.9467 22.2538C40.7926 22.0381 40.6077 21.8223 40.4227 21.6066C40.1761 21.3292 39.9296 21.0518 39.7755 20.7436C39.5289 20.3429 39.2823 19.8497 39.0666 19.3258C38.8508 18.8018 38.6659 18.5861 38.296 18.1854C38.2036 18.0929 38.1111 18.0004 38.0186 17.9388C37.957 17.8772 37.9262 17.8463 37.8645 17.7847C37.8645 17.7847 37.8645 17.7847 37.8337 17.7847C37.7721 17.7539 37.6179 17.6306 37.5563 17.5689C37.5563 17.5381 37.5255 17.5073 37.4947 17.5073C37.433 17.5073 37.4022 17.5073 37.3714 17.4457C37.3405 17.4148 37.3097 17.384 37.2481 17.3224C37.2173 17.2915 37.1556 17.2607 37.1248 17.2299C37.0015 17.1066 36.9707 17.1066 36.8166 17.1066C36.7549 17.1066 36.6933 17.1066 36.6008 17.1066C36.5084 17.1066 36.4159 17.1066 36.3234 17.1066C36.0769 17.1066 35.7686 17.0758 35.5529 17.0141C35.5221 17.0141 35.3371 16.9217 35.2447 16.8909C35.0906 16.8292 35.0906 16.8292 35.0597 16.8292C34.9365 16.86 34.9056 16.8909 34.8748 16.9525C34.844 16.9833 34.844 16.9833 34.844 16.9833C34.8132 16.9833 34.7823 17.0141 34.7207 17.0141C34.5049 17.0758 34.4741 17.1066 34.4433 17.1066C34.4125 17.1374 34.3817 17.1374 34.3508 17.1683C34.2276 17.2299 34.1351 17.2607 34.0426 17.384C33.9193 17.5381 33.8577 17.7539 33.7652 17.9388C33.7036 18.0621 33.6728 18.2162 33.6111 18.3087C33.5803 18.3703 33.5495 18.4319 33.5187 18.4628C33.457 18.5861 33.4262 18.6785 33.3029 18.8018C33.2413 18.8326 33.2104 18.8943 33.1796 18.9251C33.0255 19.0792 32.9639 19.1408 32.7173 19.0792C32.5015 19.0176 32.3166 18.8943 32.1008 18.7402C31.9467 18.6169 31.7618 18.4936 31.5769 18.4319C31.5152 18.4011 31.4536 18.4011 31.3611 18.3703C31.207 18.3395 31.0221 18.2778 30.8988 18.1854C30.8372 18.1237 30.7755 18.0621 30.7139 18.0004C30.6522 17.9388 30.6214 17.8463 30.5289 17.7847C30.4365 17.6922 30.344 17.6306 30.2515 17.5689C29.9125 17.3532 29.6351 17.1374 29.5118 16.6751C29.481 16.5518 29.481 16.4594 29.481 16.3361C29.481 16.2128 29.481 16.0895 29.4502 15.9662C29.4194 15.8737 29.3269 15.7505 29.2344 15.658C29.1728 15.5963 29.1111 15.5347 29.0803 15.4731C29.0187 15.3806 28.9879 15.2881 28.957 15.1957C28.8646 14.9799 28.7721 14.7642 28.4639 14.5792C28.3098 14.4559 28.1557 14.3943 28.0016 14.3018C27.7858 14.1785 27.6009 14.0861 27.4159 13.9012C27.2927 13.7779 27.1694 13.6546 27.0461 13.5313C26.8612 13.3464 26.6762 13.1614 26.4605 12.9765C26.368 12.9149 26.2755 12.884 26.1831 12.8224C26.0598 12.7607 25.9365 12.6991 25.844 12.6066C25.7824 12.5142 25.7516 12.4217 25.6899 12.2984C25.6591 12.1751 25.5975 12.021 25.4742 11.9286C25.2276 11.7128 24.7036 11.7436 24.3029 11.7745C24.1797 11.7745 24.0872 11.7745 24.0256 11.7745H21.6831C21.0975 11.7745 21.0358 11.7745 21.005 12.2368C21.005 12.3292 21.005 12.4525 20.9742 12.6066C20.9742 12.6991 20.9742 12.7916 20.9434 12.8532C20.9434 12.884 20.9434 12.9149 20.9434 12.9149C20.9434 12.9149 20.9126 12.9149 20.8817 12.9149C20.8509 12.9149 20.7893 12.9457 20.7276 12.9457C20.5735 13.0073 20.3269 12.9765 20.1112 12.9457C20.0187 12.9457 19.8954 12.9149 19.8338 12.9149C19.3098 12.9149 18.755 12.9457 18.2311 12.9457C16.5975 13.0073 14.9023 13.069 13.3612 12.545L5.47086 9.86351C5.50168 9.80186 5.50168 9.74022 5.5325 9.67858C5.56332 9.55529 5.59415 9.46282 5.65579 9.37036C5.65579 9.33954 5.65579 9.30872 5.65579 9.30872C5.65579 9.27789 5.62497 9.27789 5.59415 9.27789L1.18664 9.67858C1.09417 9.67858 0.970885 9.67858 0.847598 9.67858C0.508559 9.67858 0.16952 9.67858 0.0462326 9.86351C-0.0154109 9.95597 -0.0154109 10.0793 0.0462326 10.2642C0.107876 10.4183 0.231163 10.5108 0.323628 10.5724C0.385272 10.6032 0.446915 10.6649 0.477737 10.7265C0.53938 10.7882 0.53938 10.8806 0.570202 10.9731C0.601024 11.0964 0.601024 11.1888 0.662668 11.2813C0.724311 11.3738 0.847598 11.4662 0.970885 11.5587C1.06335 11.6203 1.18664 11.7128 1.18664 11.7436C1.18664 11.7436 1.15582 11.7745 0.970885 11.8053C0.940063 11.8053 0.909242 11.8361 0.909242 11.8669C0.909242 11.8977 0.940063 11.9286 0.970885 11.9286C1.00171 11.9286 1.03253 11.9286 1.03253 11.9286C1.09417 11.9902 1.06335 12.1443 1.03253 12.2368C1.03253 12.3292 1.00171 12.3601 1.03253 12.3909C1.06335 12.4525 1.12499 12.5142 1.18664 12.545C1.21746 12.5758 1.24828 12.6066 1.2791 12.6066C1.30992 12.6683 1.37157 12.7299 1.43321 12.7916C1.5565 12.9149 1.67979 13.069 1.74143 13.2231C1.80307 13.408 1.83389 13.5313 1.83389 13.6238C1.86472 13.8087 1.86472 13.8703 2.14211 14.1169C2.45033 14.3943 2.45033 14.5176 2.45033 14.7642C2.45033 14.8566 2.45033 14.9799 2.48115 15.1648C2.48115 15.1957 2.51197 15.2265 2.54279 15.2265C2.60444 15.2265 2.66608 15.2265 2.6969 15.1957C2.6969 15.2265 2.6969 15.2573 2.63526 15.2881C2.63526 15.319 2.60444 15.319 2.63526 15.3498C2.63526 15.3806 2.66608 15.3806 2.6969 15.3806C3.06676 15.4731 3.03594 15.6272 3.03594 15.9046C3.03594 16.0587 3.00512 16.2128 3.06676 16.3977C3.15923 16.7059 3.43662 17.045 3.65238 17.2299C3.92977 17.5073 4.26881 17.6614 4.57703 17.8463C4.88525 18.0004 5.22429 18.1854 5.50168 18.4319C5.84072 18.7402 6.11812 19.0792 6.39551 19.4182C6.48798 19.5415 6.61126 19.6648 6.70373 19.7881C6.76537 19.8497 6.7962 19.8806 6.85784 19.9114C6.91948 19.9422 6.9503 19.973 7.01195 20.0347C7.13523 20.2196 7.13523 20.2504 7.07359 20.4354C7.07359 20.497 7.04277 20.5278 7.04277 20.5895C7.04277 20.6511 7.01195 20.7128 6.98113 20.7744C6.9503 20.836 6.9503 20.8669 6.9503 20.9285C6.9503 21.021 6.9503 21.1134 6.98113 21.1751C7.01195 21.2675 7.01195 21.3292 6.85784 21.4833C6.58044 21.7299 6.67291 21.9148 6.73455 22.0073C6.82702 22.1306 6.98113 22.1922 7.13523 22.223C7.07359 22.2538 7.01195 22.2538 6.98113 22.2538C6.85784 22.223 6.67291 21.9764 6.64209 21.8532C6.64209 21.8223 6.61126 21.8223 6.58044 21.7915C6.45716 21.7607 6.39551 21.884 6.33387 21.9456C6.30305 21.9764 6.27223 22.0381 6.27223 22.0381C6.05647 22.0689 5.96401 22.0689 5.74826 22.0073H5.71743C5.65579 22.0073 5.5325 21.9764 5.44004 21.9148C5.22429 21.8532 5.00853 21.7607 4.8236 21.8223C4.79278 21.8223 4.76196 21.8532 4.76196 21.884C4.76196 22.1922 4.97771 22.2538 5.13182 22.3155C5.19346 22.3463 5.25511 22.3771 5.28593 22.408C5.37839 22.5929 5.56332 22.6853 5.71743 22.7778C5.87154 22.8703 5.99483 22.9627 6.0873 23.086C6.14894 23.1477 6.14894 23.2401 6.17976 23.3326C6.21058 23.4559 6.21058 23.5792 6.36469 23.6716C6.48798 23.7641 6.64209 23.8258 6.7962 23.8566C6.91948 23.8874 7.04277 23.9182 7.13523 24.0107L7.28934 24.1031C7.53592 24.2573 7.69003 24.3497 7.99824 24.6271C8.02906 24.6579 8.02907 24.6579 8.05989 24.6888C8.15235 24.7812 8.24482 24.8737 8.39893 24.8737C8.55303 24.8737 8.58386 24.7812 8.58386 24.7196V24.6888C8.6455 24.6888 8.73796 24.7196 8.83043 24.7812C8.9229 24.812 9.04618 24.8737 9.13865 24.8737C9.13865 24.9045 9.13865 24.9045 9.13865 24.9045C9.13865 24.9353 9.16947 24.9662 9.23111 24.9662C9.29276 24.997 9.44687 25.1203 9.47769 25.1511C9.60097 25.2436 9.72426 25.336 9.81673 25.4285C9.94001 25.5518 10.0941 25.6751 10.2174 25.7675C10.3099 25.8292 10.464 25.86 10.6489 25.8908C10.803 25.9216 11.0496 25.9833 11.0804 26.0449C11.1112 26.1066 11.1112 26.1374 11.1112 26.199C11.1112 26.2607 11.1112 26.3223 11.1421 26.384C11.1421 26.4148 11.1729 26.4456 11.2037 26.5072C11.2345 26.5689 11.2962 26.6305 11.2962 26.6614C11.327 26.7538 11.3886 26.8463 11.4195 26.9387C11.6352 27.3703 11.8201 27.7401 11.7893 28.2333C11.7893 28.3874 11.7277 28.5415 11.6969 28.6956C11.666 28.8189 11.6352 28.9422 11.6044 29.0654C11.5736 29.0654 11.5736 29.0654 11.5427 29.0654C11.5119 29.0963 11.4811 29.1271 11.5119 29.1579C11.5427 29.1887 11.4811 29.3737 11.4503 29.4353C11.4195 29.5586 11.3886 29.6202 11.3886 29.6819C11.4195 29.8052 11.4503 29.836 11.4811 29.8976C11.5119 29.9285 11.5119 29.9285 11.5427 29.9901C11.5427 29.9901 11.7277 30.6065 11.851 30.6374C11.8818 30.6374 11.9126 30.6065 11.9126 30.6065C12.0051 30.4216 11.9126 30.36 11.851 30.3291C11.8201 30.2983 11.7893 30.2983 11.7893 30.2675C11.7893 30.2367 11.7893 30.2059 11.7893 30.175C11.7893 30.1134 11.7585 30.0209 11.7585 29.9285C11.7277 29.8668 11.7277 29.7435 11.7277 29.6202C11.7585 29.7435 11.8201 29.8668 11.8201 29.9285C11.7893 29.9285 11.7893 29.9593 11.7893 29.9901C11.7893 30.0209 11.8201 30.0517 11.8818 30.0517C12.0051 30.0209 12.0667 29.9593 12.0975 29.8976C12.0975 29.8976 12.0975 29.8668 12.1284 29.8668C12.1592 29.8976 12.19 29.9593 12.2825 30.1442C12.3133 30.2059 12.3749 30.3291 12.3749 30.3908C12.3133 30.3908 12.19 30.4216 12.0667 30.5449C12.0667 30.5757 12.0359 30.6065 12.0667 30.6065C12.0975 30.6682 12.4982 31.0689 12.6831 31.0997C12.7448 31.0997 12.7756 31.0689 12.8064 31.038C12.8064 31.038 12.8064 31.0072 12.8373 31.0072L12.9914 31.0689C13.4537 31.1921 13.8852 31.3463 14.2242 31.6853C14.3475 31.8086 14.4708 31.9627 14.5941 32.1168C14.779 32.3634 14.9948 32.6099 15.2414 32.7641C15.3646 32.8565 15.4571 32.8873 15.5804 32.9182C15.7345 32.9798 15.8886 33.0414 16.0119 33.2264C16.1352 33.3805 16.2585 33.6887 16.3201 33.8428C16.3818 33.9661 16.4126 34.0894 16.4434 34.2127C16.5359 34.4901 16.5975 34.7366 16.7824 34.7983C16.8133 34.8291 16.8749 34.8291 16.9057 34.8291C17.029 34.8291 17.1831 34.7675 17.3989 34.6442C17.7379 34.4593 18.2619 33.9969 18.2002 33.4113C18.1694 33.1031 17.9537 32.949 17.7687 32.7949C17.6763 32.7024 17.553 32.6408 17.4913 32.5483C17.4605 32.4867 17.4297 32.3942 17.3989 32.2709C17.3681 32.1476 17.3372 32.0243 17.2756 31.9627C17.1523 31.8086 17.1523 31.7778 17.0598 31.7469C17.029 31.7161 16.9674 31.6853 16.8749 31.6237C16.8749 31.6237 16.8133 31.562 16.7824 31.5004C16.3509 31.0072 16.1968 30.8839 16.1044 30.8839C16.0735 30.8839 16.0427 30.9148 16.0427 30.9456C16.0119 31.0997 16.0427 31.1921 16.0427 31.2538C16.0119 31.2538 15.9503 31.2846 15.8886 31.2846C15.8886 31.2846 15.8886 31.2846 15.8578 31.2846C15.7961 31.2538 15.7653 31.2538 15.7037 31.223C15.5187 31.1613 15.3338 31.0689 15.2414 30.9456C15.0872 30.7298 15.1181 30.4216 15.1489 30.175C15.1489 30.1134 15.1489 30.0517 15.1797 29.9901C15.2105 29.497 15.0564 29.312 14.8715 29.0654C14.8098 28.973 14.7174 28.8805 14.6557 28.7572C14.5941 28.6648 14.5633 28.5723 14.5325 28.449C14.5016 28.3565 14.4708 28.2641 14.44 28.2024C14.44 28.0792 14.4092 27.9559 14.4092 27.8634C14.4092 27.8326 14.3783 27.8018 14.3475 27.8018C14.2551 27.8018 14.1934 27.7709 14.1626 27.7401C14.0393 27.5552 13.916 27.3394 13.8544 27.1545C13.8544 27.1853 13.8852 27.1853 13.916 27.1853C13.9777 27.1853 14.0085 27.1237 14.0701 27.0312C14.1318 26.9387 14.1934 26.7846 14.2859 26.7538C14.3167 26.7538 14.3167 26.723 14.3167 26.723C14.3167 26.6922 14.3167 26.6922 14.3167 26.6614C14.2859 26.5997 14.2859 26.5381 14.2859 26.4764C14.2859 26.4456 14.2551 26.4148 14.2242 26.4148C13.916 26.4148 13.916 26.6922 13.8852 26.8771C13.8852 26.9387 13.8852 27.0312 13.8544 27.0929V27.1237C13.7311 26.7846 13.6694 26.4456 13.6078 26.0449C13.577 25.9525 13.577 25.8292 13.5462 25.7367C13.5462 25.6751 12.9605 24.3805 12.5907 24.2881C12.529 24.2573 12.4674 24.2881 12.4058 24.3497C12.2825 24.473 12.4366 24.6888 12.5907 24.9353C12.6523 25.0278 12.714 25.1511 12.7448 25.2127C12.5907 25.2127 12.529 24.997 12.4674 24.7504C12.4366 24.6888 12.4366 24.6271 12.4058 24.5963C12.3749 24.5347 12.3441 24.473 12.2825 24.3805C12.2208 24.2881 12.1592 24.1648 12.1284 24.1031C12.1284 24.1031 12.19 24.0723 12.19 24.0415C12.2516 24.0107 12.3441 23.949 12.3441 23.8566C12.3441 23.8258 12.3133 23.7949 12.3133 23.7949C12.19 23.7333 12.0975 23.7333 12.0051 23.7025C11.851 23.6716 11.7585 23.6408 11.6044 23.4559C11.5119 23.3326 11.4811 23.2093 11.4195 23.0552C11.3578 22.8703 11.2962 22.7162 11.1112 22.5312C11.0188 22.4388 10.9263 22.408 10.8338 22.3771C10.7106 22.3155 10.5873 22.2538 10.4948 22.1306C10.464 22.0689 10.464 21.9764 10.464 21.8532C10.464 21.7299 10.464 21.5758 10.3715 21.4833C10.3099 21.4217 10.1249 20.9285 10.1249 20.8052C10.1249 20.7744 10.1249 20.7128 10.1249 20.6511C10.1249 20.5278 10.1558 20.4045 10.0941 20.3429C10.0325 20.2813 9.94001 20.2813 9.84755 20.2813C9.75508 20.2813 9.69344 20.3121 9.63179 20.2504C9.50851 20.158 9.50851 20.0039 9.47769 19.8189C9.44687 19.6648 9.44687 19.4799 9.32358 19.3566C9.29276 19.3258 9.26194 19.3258 9.26194 19.3258C9.04618 19.3566 9.01536 19.3566 9.01536 19.3566C8.98454 19.3566 8.98454 19.2641 8.98454 19.2333C8.98454 19.1408 8.95372 18.9867 8.83043 18.9559C8.79961 18.9559 8.79961 18.9559 8.76879 18.9559C8.70714 18.9867 8.67632 19.0176 8.6455 19.0792C8.58386 19.0176 8.55303 18.9559 8.55303 18.9251C8.55303 18.9251 8.55303 18.8943 8.61468 18.8635C8.6455 18.8635 8.6455 18.8326 8.6455 18.8018C8.6455 18.6169 7.01195 17.045 6.98113 17.045C6.45716 16.6751 5.99483 16.2744 5.90236 15.5655C5.87154 15.3806 5.87154 15.1648 5.87154 14.9491C5.87154 14.6101 5.87154 14.2402 5.77908 13.932C5.71743 13.7779 5.62497 13.7779 5.56332 13.7779C5.50168 13.7779 5.47086 13.7779 5.47086 13.7162C5.44004 13.6546 5.40922 13.3464 5.40922 13.2539C5.40922 13.0381 5.44004 12.7299 5.47086 12.4834C5.47086 12.4525 5.50168 12.3601 5.5325 12.2676C5.59415 12.1135 5.59415 12.0518 5.59415 12.021C5.59415 11.9594 5.56332 11.9286 5.56332 11.8669C5.65579 11.9286 5.74826 11.9594 5.8099 11.9594H5.84072C5.87154 11.9594 5.90236 11.9286 5.93319 11.9286C5.96401 11.8669 5.90236 11.8361 5.87154 11.8053L5.84072 11.7745H5.87154C5.99483 11.8361 6.11812 11.9286 6.2414 11.9902C6.36469 12.0518 6.45716 12.1443 6.58044 12.206L6.67291 12.2368C6.88866 12.3601 7.10441 12.4834 7.38181 12.4217C7.56674 12.3909 7.59756 12.2984 7.59756 12.206C7.62838 12.206 7.6592 12.206 7.78249 12.2368C7.99824 12.2984 8.02907 12.3601 8.05989 12.4834C8.09071 12.545 8.12153 12.6375 8.18317 12.7299C8.3681 12.9149 8.55303 12.9457 8.73797 12.9765C8.83043 12.9765 8.9229 13.0073 9.01536 13.0381C9.10783 13.069 9.6318 13.3155 9.66262 13.4696C9.66262 13.5005 9.66262 13.5005 9.63179 13.5313H9.60097C9.53933 13.5005 9.47769 13.4696 9.44687 13.5005C9.41604 13.5005 9.41604 13.5313 9.41604 13.5621V13.6546C9.41604 13.932 9.38522 14.2094 9.47769 14.4868C9.53933 14.6101 9.60097 14.7025 9.69344 14.7642C9.75508 14.8258 9.81673 14.8874 9.84755 14.9491C9.90919 15.0416 9.90919 15.134 9.94001 15.2265C9.97083 15.2881 9.97084 15.3806 10.0017 15.4422C10.0325 15.5039 10.0941 15.5655 10.1558 15.6272C10.2174 15.6888 10.2791 15.7505 10.3099 15.8121C10.3407 15.8737 10.3407 15.9662 10.3099 16.0895C10.3099 16.182 10.3099 16.2744 10.3099 16.3669C10.3407 16.5518 10.4332 16.7368 10.5873 16.9525C10.6181 17.0141 10.7106 17.1066 10.803 17.1991C10.8955 17.2915 11.0496 17.4457 11.0804 17.5073C11.1112 17.5689 11.1112 17.6306 11.1112 17.6922C11.1112 17.7847 11.1112 17.8463 11.1421 17.9388C11.2653 18.1237 11.3578 18.1237 11.4503 18.1237C11.4811 18.1237 11.5119 18.1237 11.5736 18.1854C11.666 18.2778 11.6969 18.4628 11.7277 18.6169C11.7585 18.8018 11.7893 18.9559 11.8818 19.0792C11.9126 19.11 12.0359 19.2025 12.2516 19.3566C12.2825 19.3874 12.3133 19.3874 12.3133 19.4182C12.3133 19.4182 12.3133 19.4182 12.2825 19.4182C12.2516 19.4182 12.2208 19.4491 12.2208 19.5107C12.2208 19.5415 12.2516 19.5415 12.2516 19.5415C12.2825 19.5724 12.4366 19.7881 12.5599 19.9422C12.714 20.1271 12.7756 20.2196 12.7756 20.2504C12.8681 20.3121 12.9605 20.3737 13.053 20.4045C13.1455 20.4354 13.2071 20.4662 13.2688 20.5278C13.3304 20.5895 13.3612 20.6203 13.392 20.6819C13.4229 20.7128 13.4537 20.7744 13.4845 20.836C13.5153 20.8977 13.5462 20.9593 13.6078 21.021C13.7311 21.2367 13.8852 21.4525 14.0701 21.5758C14.1626 21.6374 14.2551 21.6374 14.3167 21.6374C14.3783 21.6374 14.4092 21.6374 14.4708 21.6682C14.5016 21.6991 14.5325 21.7299 14.5633 21.7915C14.5941 21.8532 14.6557 21.9456 14.7482 21.9764C14.779 21.9764 14.8098 21.9764 14.8407 21.9764C14.9023 21.9456 14.9023 21.884 14.9023 21.7607C14.9948 21.7915 15.1797 21.8532 15.5188 21.884C15.4571 21.9456 15.4263 22.0073 15.3955 22.0997C15.3955 22.1614 15.3646 22.223 15.3646 22.2538C15.3338 22.2847 15.303 22.3155 15.303 22.3155C15.2414 22.408 15.4263 22.8086 15.4571 22.8703C15.5188 22.9627 15.5804 23.0552 15.642 23.086C15.642 23.086 15.6729 23.1169 15.642 23.086C15.6729 23.1169 15.6729 23.1785 15.7037 23.2093C15.827 23.4559 15.8886 23.61 16.2893 23.7641C16.3509 23.7949 16.4434 23.7949 16.5359 23.7949C16.6283 23.7949 16.7516 23.8258 16.7824 23.8258C16.9057 23.9182 16.9057 24.0107 16.9366 24.1648C16.9366 24.2573 16.9674 24.3497 17.029 24.4422C17.1523 24.6271 17.7071 24.997 17.892 24.9045C17.9228 24.9045 17.9228 24.8737 17.9537 24.8429H17.9845C18.0461 24.8737 18.1078 24.8737 18.1078 24.9045C18.2311 24.997 18.6009 25.5209 18.5701 25.7367C18.5701 25.7675 18.5701 25.7675 18.5393 25.7675C18.5085 25.7983 18.4776 25.8292 18.5085 25.86C18.5085 25.86 18.5085 25.86 18.5085 25.8908C18.5085 25.9216 18.4776 25.9216 18.4468 25.9216C18.416 25.9216 18.416 25.9525 18.416 25.9833L18.3852 26.0141C18.3544 26.1066 18.2927 26.199 18.2619 26.2915C18.1386 26.5381 17.9845 26.8155 18.077 27.062C18.077 27.0929 18.1386 27.1545 18.2311 27.2778C18.2002 27.2778 18.1694 27.3086 18.1694 27.3394C18.1694 27.4319 18.2002 27.4935 18.2619 27.5244C18.416 27.6476 18.6934 27.6476 18.755 27.6476C18.7859 27.6476 18.7859 27.6476 18.8167 27.6476C18.8167 27.6476 18.8167 27.6785 18.8475 27.6785C18.8475 27.6785 18.8783 27.7093 18.9091 27.7093C18.8783 27.7401 18.8783 27.7709 18.8783 27.8018C18.8783 27.8326 18.8783 27.8326 18.9091 27.8634C18.9708 27.8942 19.0016 27.9559 19.0324 28.0175V28.0483C19.0632 28.0792 19.1249 28.11 19.1557 28.11C19.279 28.11 19.4023 27.9559 19.4639 27.8634L19.4023 27.8018L19.4639 27.8326C19.4948 27.8326 19.5872 27.9559 19.6489 28.0483C19.5564 28.0175 19.4948 27.9867 19.4331 27.9867C19.4023 27.9867 19.3406 27.9867 19.3098 28.0175C19.3098 28.0175 19.3098 28.0175 19.279 28.0483C19.2482 28.0792 19.2482 28.11 19.279 28.1408C19.3098 28.1716 19.3406 28.1716 19.3715 28.1408C19.4023 28.1408 19.5256 28.1716 19.5564 28.2024C19.618 28.2333 19.6489 28.2333 19.6797 28.2333C19.9879 28.3565 20.4194 28.6339 20.5119 28.7264C20.5427 28.7572 20.5735 28.7572 20.5735 28.7572C20.6043 28.7572 20.6043 28.7264 20.6043 28.6956V28.6648C20.666 28.7264 20.7893 28.7881 21.005 28.9113C21.0667 28.9422 21.1591 29.0038 21.2208 29.0346C21.19 29.0346 21.1591 29.0346 21.1591 29.0038C21.1283 29.0038 21.1283 29.0038 21.0975 29.0038L21.0667 29.0346V29.0654C21.0358 29.0346 21.005 29.0038 20.9742 28.973C20.9126 28.8805 20.8201 28.7881 20.666 28.7881C20.6352 28.7881 20.6043 28.8189 20.6043 28.8497C20.6043 28.973 20.9742 29.3737 21.0667 29.4353L21.1283 29.497C21.2516 29.5894 21.2824 29.6202 21.3441 29.5894C21.3749 29.5586 21.3749 29.5278 21.3749 29.4661C21.3749 29.4353 21.3749 29.3737 21.3749 29.2812H21.4057C21.4365 29.312 21.4057 29.4045 21.4057 29.4661C21.4057 29.5278 21.4057 29.5586 21.4057 29.6202C21.3749 29.6202 21.3749 29.6202 21.3441 29.6202C21.3132 29.6202 21.2824 29.6511 21.2824 29.6819C21.2824 29.7127 21.3132 29.7127 21.3132 29.7435C21.3441 29.7743 21.3749 29.8976 21.4057 29.9593C21.4365 30.0517 21.4365 30.0826 21.4673 30.0826C21.5598 30.2059 21.6831 30.2675 21.8064 30.3291C21.8372 30.36 21.8989 30.36 21.9297 30.3908L21.9605 30.4216L21.9913 30.4524C21.9913 30.4832 21.9913 30.5141 22.0221 30.5141L22.053 30.5449C22.053 30.5449 22.053 30.5449 22.053 30.5757C22.0838 30.6065 22.1146 30.6374 22.1762 30.6374C22.3304 30.7606 22.7002 31.0689 22.8235 31.1613C22.8851 31.223 22.9468 31.2538 22.9468 31.2538C23.4708 31.6853 23.779 32.0552 24.1797 32.6099C24.4262 32.949 24.7653 33.3805 25.0427 33.7195C25.1043 33.812 25.1968 33.8736 25.2892 33.9353C25.3201 33.9661 25.3817 33.9969 25.4125 34.0277C25.4742 34.0586 25.5358 34.1819 25.6283 34.2743C25.7824 34.4901 25.9057 34.6134 25.9981 34.675C25.9981 34.7058 26.029 34.7058 26.0598 34.7058C26.2447 34.7983 26.368 35.014 26.4913 35.2606C26.6146 35.5072 26.7379 35.7538 26.9536 35.8154C26.9536 35.8154 26.9536 35.8154 26.9844 35.8154C26.9844 35.8462 26.9844 35.8771 26.9844 35.9387C26.9536 35.9387 26.9228 35.9695 26.9228 36.0003C26.9228 36.6784 26.9844 36.9558 27.2927 37.5414C27.3235 37.6031 27.3851 37.6955 27.4159 37.7264C27.4159 37.7264 27.4159 37.7264 27.4159 37.7572C27.4776 37.8188 27.5392 37.8805 27.6317 37.9421C27.6933 38.0037 27.755 38.0346 27.7858 38.0962C27.8474 38.1887 27.9091 38.2195 27.9399 38.2503C27.9399 38.2811 27.9399 38.3428 27.9707 38.4353C28.0016 38.5277 27.9707 38.99 27.9399 39.1133C27.8783 39.3599 27.6009 39.6065 27.3543 39.8222C27.2927 39.8839 27.231 39.9147 27.2002 39.9763C27.1694 40.0072 27.1694 40.038 27.2002 40.038C27.2002 40.0688 27.231 40.0688 27.2618 40.0688C27.4776 40.0688 27.8474 40.1921 27.9091 40.4078C27.9399 40.4695 27.9091 40.5311 27.9091 40.562C27.8474 40.6544 27.6625 40.6852 27.4776 40.7161C27.231 40.7469 26.9536 40.8085 26.892 41.0243C26.8612 41.1167 26.9536 41.2709 27.1385 41.6407C27.1694 41.7332 27.2002 41.7948 27.231 41.8256C27.3543 42.1339 27.4776 42.4113 27.6933 42.6578C27.8166 42.8119 27.9091 42.9352 28.0324 43.0585C28.1865 43.2126 28.3098 43.3667 28.4331 43.5825C28.6488 43.9215 29.0495 44.1989 29.5426 44.353C29.5735 44.353 29.6351 44.3838 29.7584 44.3838C29.8509 44.3838 30.0358 44.4147 30.0974 44.4455C30.1283 44.6921 30.4673 44.877 30.8372 45.0927C31.0837 45.2469 31.3611 45.401 31.4844 45.5551C31.5461 45.6167 31.5461 45.6475 31.5769 45.7092C31.5769 45.74 31.6077 45.8016 31.6385 45.8633C31.6693 45.9249 31.7618 45.9866 31.8235 46.0482C31.8543 46.079 31.8851 46.1099 31.9159 46.1407C32.255 46.4797 32.3782 46.5414 32.7481 46.6647C32.8097 46.6955 32.8714 46.6955 32.933 46.7263C33.0871 46.7879 33.2413 46.8496 33.3954 46.9421C33.6111 47.0653 33.8577 47.1886 34.1351 47.2194C34.2276 47.2503 34.32 47.2811 34.4433 47.3119C34.6899 47.4044 34.9981 47.4968 35.2138 47.4968C35.3063 47.4968 35.368 47.466 35.4296 47.4352C35.7686 47.1886 36.1693 47.6818 36.5084 48.0825C36.6625 48.2674 36.7858 48.4215 36.909 48.514C37.0015 48.5756 37.094 48.6372 37.1556 48.6989C37.4947 48.9455 37.8337 49.1612 38.2036 49.3153C38.4501 49.4078 38.6967 49.5311 38.9433 49.6544C39.2207 49.7777 39.4672 49.9009 39.7446 50.0242C39.8371 50.055 39.9296 50.0859 40.022 50.1167C40.207 50.1783 40.3919 50.24 40.5152 50.3324C40.546 50.3324 40.5768 50.3941 40.6077 50.4249C40.7309 50.5482 40.885 50.7023 41.0392 50.7023C41.2549 50.7948 41.5939 50.8564 41.9638 50.9181C42.0563 50.9489 42.1487 50.9489 42.2104 50.9489C42.4261 51.0105 42.6419 51.0722 42.9193 51.1955C42.9501 51.1955 43.0734 51.1954 43.135 51.1646C43.2275 51.2263 43.2891 51.2879 43.3508 51.3804C43.4124 51.442 43.4432 51.5037 43.5049 51.5653C43.7206 51.7811 44.0289 51.8735 44.3371 51.966C44.5837 52.0585 44.8611 52.1201 45.0768 52.2742C45.1693 52.3359 45.2309 52.3975 45.2617 52.4283C45.4158 52.5516 45.5083 52.6441 45.7857 52.7057C45.909 52.7365 46.0631 52.7365 46.1864 52.7365C46.3405 52.7365 46.4638 52.7365 46.6179 52.7674C46.8645 52.829 47.0494 52.9523 47.2651 53.0756C47.4193 53.168 47.5734 53.2605 47.7275 53.3222C47.9432 53.4146 48.0973 53.4454 48.2206 53.4454C48.3131 53.4454 48.4056 53.4454 48.498 53.4146C48.5597 53.4146 48.5905 53.4146 48.6521 53.3838C49.2686 53.3221 50.0391 52.9831 50.6864 52.7365L50.8096 52.6749C51.0254 52.5824 51.1795 52.49 51.3644 52.3667C51.7343 52.1509 52.0425 51.9352 52.5665 51.9968C52.5665 52.0276 52.5973 52.0276 52.6281 52.0276C52.659 52.0276 52.659 52.0276 52.6898 51.9968C52.7206 51.9968 52.9055 51.9968 53.6761 52.1509C53.7069 52.1509 53.7069 52.1509 53.7069 52.1509L53.7377 52.1817C53.7994 52.1817 53.861 52.2434 53.9535 52.305C54.0768 52.3975 54.2 52.4591 54.3233 52.4591C54.3541 52.4591 54.3541 52.4591 54.385 52.4591C54.4158 52.4591 54.4158 52.4283 54.4466 52.4283C54.4466 52.4591 54.4774 52.49 54.5083 52.49C54.6315 52.49 55.0322 52.829 55.2172 52.9831C55.2788 53.0448 55.3404 53.0756 55.3713 53.1064C55.6487 53.3222 55.8952 53.5687 56.1418 53.8153C56.2959 53.9694 56.45 54.1235 56.635 54.2776C57.0356 54.6167 57.3747 55.0173 57.7137 55.3872C57.9911 55.6954 58.2685 56.0036 58.5459 56.281C58.5459 56.281 58.5767 56.3119 58.6075 56.3119C58.6384 56.3119 58.6384 56.3119 58.6692 56.281C58.9158 56.0345 58.9158 55.6338 58.9466 55.3256C58.9466 55.2331 58.9466 55.1406 58.9774 55.0482C58.9774 54.9865 59.0082 54.9557 59.0082 54.9249C59.0391 54.8632 59.0699 54.8016 59.0082 54.6475C58.9774 54.555 58.9158 54.5242 58.8541 54.4626C58.7925 54.4009 58.7308 54.3701 58.7308 54.3084C58.7 54.0619 59.5322 52.7365 59.748 52.5208C60.1486 52.1201 61.2582 52.1817 62.1521 52.2126C62.4603 52.2434 62.7377 52.2434 62.9534 52.2434C62.9842 52.2434 62.9842 52.2434 63.0151 52.2126C63.0151 52.2126 63.0459 52.1817 63.0459 52.1509C63.0459 52.0585 63.0459 51.9044 63.0767 51.7811C63.1075 51.5961 63.1383 51.442 63.1075 51.3496C63.0459 51.1955 62.9534 51.1955 62.861 51.1955C62.7993 51.1955 62.7685 51.1954 62.7377 51.1646C62.676 51.103 62.6144 51.0722 62.5836 51.0413C62.5219 51.0105 62.4911 50.9797 62.4294 50.8564C62.3986 50.7948 62.3986 50.7331 62.3678 50.6715C62.3678 50.579 62.337 50.4866 62.2137 50.3633C62.1521 50.3016 62.0288 50.2708 61.9055 50.24C61.8438 50.2092 61.7514 50.2092 61.6897 50.1783C61.5973 50.1475 61.474 50.0242 61.3815 49.9009C61.3199 49.8393 61.289 49.7777 61.2274 49.716C61.1658 49.6544 61.1041 49.5619 61.0425 49.5003C61.0116 49.4694 60.9192 49.4078 60.8267 49.3461C60.7651 49.3153 60.7034 49.2537 60.6726 49.2229C60.7034 49.2229 60.7342 49.2229 60.7651 49.2229C60.8575 49.2229 60.9808 49.2229 61.0733 49.2229C61.3507 49.2229 61.5664 49.192 61.6589 49.0687C61.7822 48.9146 61.7514 48.514 61.6897 48.0516C61.6897 47.9283 61.6589 47.8359 61.6589 47.7434H64.0322C64.0938 47.7434 64.2171 47.7434 64.3404 47.7742C64.6178 47.8051 64.8952 47.8051 65.1418 47.8051C65.5116 47.8051 65.8198 47.7434 65.9431 47.5893C65.9739 47.5585 66.0048 47.4968 66.0048 47.4044C66.0664 47.4044 66.1589 47.4044 66.2205 47.4044C66.2822 47.4044 66.3438 47.4044 66.4054 47.4044C66.4054 47.4044 66.4671 47.4352 66.4671 47.466C66.4979 47.4968 66.5596 47.5585 66.652 47.5585H66.6828C66.837 47.5277 67.2685 46.6647 67.2685 46.6647C67.2993 46.6338 67.2993 46.5722 67.3301 46.5414C67.4226 46.3256 67.4842 46.2023 67.6691 46.0482C67.7308 46.0174 67.7616 45.9866 67.7616 45.9866C67.7616 46.0174 67.7924 46.0482 67.8541 46.0482C67.9157 46.0482 67.9465 46.0174 68.1006 45.8325L68.1315 45.8016C68.2239 45.7092 68.3164 45.5551 68.2856 45.4318C68.2856 45.401 68.2548 45.401 68.2548 45.3701C68.3472 45.3085 68.4397 45.216 68.5013 45.1236C68.5322 45.2469 68.5322 45.3085 68.5013 45.401C68.5013 45.4626 68.4705 45.5551 68.4705 45.6784C68.4705 45.7708 68.4705 45.8016 68.4705 45.8325C68.4705 45.8633 68.4705 45.9249 68.5322 45.9249C68.5322 45.9249 68.563 45.9558 68.5938 46.0482C68.5938 46.0482 68.5938 46.079 68.6246 46.079C68.8712 46.5105 68.9328 46.6338 68.9637 46.6647C68.9637 46.6955 68.9637 46.6955 68.9945 46.7263C69.0253 46.7263 69.0253 46.7571 69.0561 46.7263C69.0869 46.7263 69.0869 46.6955 69.0869 46.6955C69.0869 46.6955 69.0869 46.6647 69.0869 46.6338C69.1178 46.4181 69.426 45.4626 69.6417 44.7537C69.95 43.7674 69.95 43.7674 69.9191 43.7058C69.9191 43.6749 69.8883 43.6749 69.8883 43.6749C69.765 43.6441 69.6417 43.7674 69.5184 43.9215C69.5184 43.9215 69.5184 43.9215 69.4876 43.9523C69.4568 43.9215 69.4568 43.9215 69.4568 43.8907C69.4568 43.8291 69.5493 43.7366 69.6109 43.6749C69.6417 43.6441 69.6726 43.6133 69.6726 43.6133C69.7342 43.5517 69.7958 43.5208 69.8575 43.4592C69.9808 43.3976 70.0732 43.3359 70.0732 43.0277C70.0732 42.9969 70.0424 42.966 70.0116 42.966C69.95 42.966 69.8575 42.9969 69.765 43.0277C69.6109 43.0893 69.426 43.151 69.3643 43.0893C69.3335 43.0585 69.3027 43.0277 69.3027 42.9352C69.5801 42.8736 69.9191 42.5345 69.9808 42.288C70.0116 42.1955 70.0116 42.0722 69.9808 41.9489C69.95 41.8256 69.95 41.7332 69.9808 41.6407C70.0424 41.3941 70.2273 41.1476 70.3815 40.9626C70.4739 40.8393 70.5972 40.7161 70.6897 40.5928C70.8438 40.4387 70.9979 40.2537 71.152 40.0688C71.1828 40.0072 71.2445 39.8839 71.3061 39.7606C71.3986 39.5757 71.5835 39.175 71.6451 39.1442C71.676 39.1442 71.7068 39.1133 71.7068 39.0825C71.8301 39.4832 71.7993 39.4524 71.7993 39.4216Z" fill="#750AAF"/>
</svg>
