<svg width="74" height="81" viewBox="0 0 74 81" fill="none" xmlns="http://www.w3.org/2000/svg">
<path fill-rule="evenodd" clip-rule="evenodd" d="M71.9781 1.73565C71.4853 0.355877 69.9413 -0.334009 68.5944 0.158766L38.6665 11.1312C37.6481 10.7042 36.4654 10.6056 35.3485 11.0327C34.2315 11.4598 33.3774 12.281 32.8517 13.2666L4.92779 23.4835C3.54802 23.9763 2.85813 25.5203 3.3509 26.8672C3.84368 28.247 5.38771 28.9369 6.73463 28.4441L33.4431 18.6543V72.3668C27.3655 73.1881 21.945 76.1448 18.0028 80.4812H55.7165C51.7743 76.1448 46.3866 73.1553 40.2762 72.3668V18.0958C40.8018 17.4716 41.1632 16.716 41.3275 15.8947C41.3603 15.8619 41.3275 15.829 41.3603 15.7633L70.4341 5.11937C71.781 4.6266 72.5037 3.11542 71.9781 1.73565ZM36.5968 17.1759C36.3997 17.1431 36.2026 17.1102 36.0055 17.0445C35.8412 16.9788 35.7098 16.8474 35.5784 16.7489C35.5127 16.716 35.447 16.6832 35.4142 16.6175C35.2499 16.4204 35.0856 16.2232 34.9871 15.9933C34.9871 15.9933 34.9871 15.9933 34.9871 15.9604C34.8885 15.6976 34.8228 15.4348 34.8228 15.1391C34.8228 14.3836 35.2499 13.7594 35.8412 13.3652C35.9398 13.2994 36.0055 13.2337 36.1369 13.2009C36.2026 13.168 36.2683 13.168 36.334 13.168C37.3524 12.9052 38.4365 13.4309 38.7979 14.4493C39.1921 15.5334 38.6336 16.716 37.5495 17.1102C37.2867 17.2088 37.0239 17.2417 36.7611 17.2417C36.6954 17.2088 36.6625 17.1759 36.5968 17.1759Z" fill="#750AAF"/>
<path fill-rule="evenodd" clip-rule="evenodd" d="M13.2392 47.2023C11.3995 47.2023 9.69125 47.5637 8.08152 48.2536L13.6006 34.9486L18.8897 48.5164C17.1814 47.6951 15.2432 47.2023 13.2392 47.2023ZM26.4128 59.6203C26.4456 59.8831 26.4456 60.1787 26.4456 60.4415C26.4456 64.0881 24.9673 67.4061 22.5691 69.8043C20.1709 72.2025 16.8529 73.6808 13.2064 73.6808C9.55984 73.6808 6.24182 72.2025 3.84365 69.8043C1.44547 67.4061 0 63.6939 0 60.0473C0 59.8502 0 60.2444 0 60.0473C0.0328517 59.0946 0.19711 57.9777 0.427072 57.1235C0.755589 56.2037 1.11696 55.2838 1.44547 54.4297C4.96061 45.494 8.47574 39.1208 11.958 28.9696C12.2865 28.0498 13.2721 27.5898 14.1591 27.8855C14.7176 28.0826 15.1446 28.5425 15.276 29.101L25.2301 55.0539C25.4601 55.5795 25.6572 56.0723 25.8214 56.6307C26.1828 57.5506 26.3471 58.569 26.4128 59.6203ZM12.0237 52.2943C11.9909 52.3272 7.72015 52.6228 7.19452 55.9737C6.47178 60.5072 11.2024 61.2628 13.3706 62.3141C16.3273 63.7267 14.9475 66.322 7.12882 63.0697V66.8805C7.12882 66.8805 8.54144 67.4061 9.39559 67.6032C10.2497 67.8003 12.0237 67.9646 12.0237 67.9646L12.0566 70.0999H14.4219L14.5204 67.9317C14.5533 67.9317 15.6374 67.7018 16.0645 67.5704C20.2695 66.1906 20.4009 61.23 16.8201 59.3903C14.9475 58.4376 11.6624 57.7806 11.6952 56.5322C11.7281 55.3824 13.4035 55.3824 14.7504 55.7766C15.276 55.908 17.7728 56.7293 17.7728 56.7293L19.054 53.477L14.4547 52.3272L14.389 50.816L12.0566 50.8489L12.0237 52.2943Z" fill="#750AAF"/>
<path fill-rule="evenodd" clip-rule="evenodd" d="M60.48 29.5938C58.6403 29.5938 56.932 29.9552 55.3222 30.6451L60.8413 17.3073L66.1305 30.875C64.4222 30.0537 62.5168 29.5938 60.48 29.5938ZM73.6535 41.9789C73.6863 42.2417 73.6863 42.5374 73.6863 42.8002C73.6863 46.4467 72.208 49.7648 69.8098 52.1629C67.4117 54.5611 64.0936 56.0394 60.4471 56.0394C56.8006 56.0394 53.4825 54.5611 51.0844 52.1629C48.6862 49.7648 47.2407 46.0525 47.2407 42.406C47.2407 42.2089 47.2407 42.6031 47.2407 42.406C47.2736 41.4533 47.4378 40.3363 47.6678 39.4822C47.9963 38.5623 48.3577 37.6425 48.6862 36.7883C52.2013 27.8527 55.7165 21.4794 59.1987 11.3283C59.5273 10.4084 60.5128 9.94849 61.3998 10.2442C61.9583 10.4413 62.3854 10.9012 62.5168 11.4597L72.4708 37.4125C72.7008 37.9381 72.8979 38.4309 73.0622 38.9894C73.4235 39.9092 73.5878 40.9276 73.6535 41.9789ZM59.2644 34.653C59.2316 34.6858 54.9609 34.9815 54.4352 38.3324C53.7125 42.8659 58.4432 43.6215 60.6114 44.6727C63.568 46.0854 62.1882 48.6806 54.3695 45.4283V49.2391C54.3695 49.2391 55.7822 49.7648 56.6363 49.9619C57.4905 50.159 59.2644 50.3232 59.2644 50.3232L59.2973 52.4586H61.6626L61.7612 50.2904C61.794 50.2904 62.8781 50.0604 63.3052 49.929C67.5102 48.5492 67.6416 43.5886 64.0608 41.7489C62.1882 40.7962 58.9031 40.1392 58.9359 38.8908C58.9688 37.741 60.6442 37.741 61.9911 38.1352C62.5168 38.2667 65.0135 39.0879 65.0135 39.0879L66.2947 35.8356L61.6955 34.6858L61.6298 33.1746L59.2973 33.2075L59.2644 34.653Z" fill="#750AAF"/>
</svg>
