<svg width="45" height="92" viewBox="0 0 45 92" fill="none" xmlns="http://www.w3.org/2000/svg">
<path fill-rule="evenodd" clip-rule="evenodd" d="M44.9748 6.5844C44.9748 2.9388 41.9988 0 38.3904 0H6.5844C2.9388 0 0 2.976 0 6.5844V84.4812C0 88.1268 2.976 91.0656 6.5844 91.0656H38.3532C41.9988 91.0656 44.9376 88.0896 44.9376 84.4812L44.9748 6.5844ZM39.5436 84.4812C39.5436 85.1136 39.0228 85.6344 38.3904 85.6344H6.5844C5.952 85.6344 5.4312 85.1136 5.4312 84.4812V6.5844C5.4312 5.952 5.952 5.4312 6.5844 5.4312H38.3532C38.9856 5.4312 39.5064 5.952 39.5064 6.5844L39.5436 84.4812ZM16.74 1.3392H28.272C29.016 1.3392 29.6484 1.9344 29.6484 2.7156C29.6484 3.4596 29.0532 4.092 28.272 4.092H16.74C15.996 4.092 15.3636 3.4968 15.3636 2.7156C15.3636 1.9344 15.996 1.3392 16.74 1.3392Z" fill="#750AAF"/>
<path d="M6.35263 47.5102C6.47061 47.9526 6.70657 48.1886 7.149 48.2475C7.91588 48.3655 8.68276 48.4835 9.44964 48.513C9.95106 48.5425 10.3345 48.69 10.6 49.1619C10.6884 49.3094 10.7474 49.4274 10.7179 49.6338C10.6294 50.4597 10.541 51.2561 10.482 52.0819C10.4525 52.3179 10.482 52.5834 10.4525 52.9078C10.6 53.0553 10.7179 53.2322 10.9244 53.3502C11.5733 53.7337 12.2517 54.0876 12.8711 54.5005C13.284 54.766 13.638 54.7365 13.9919 54.4711C14.6113 53.9991 15.2307 53.5272 15.8206 52.9963C16.1746 52.6718 16.5285 52.5244 17.0004 52.6423C17.1774 52.7013 17.2954 52.7308 17.4134 52.8783C17.7673 53.3502 18.0918 53.7927 18.4752 54.2351C18.7702 54.589 19.0651 54.9135 19.3896 55.2674C19.596 55.4739 19.8025 55.5034 20.0974 55.4149C20.8348 55.2084 21.5722 54.9725 22.3391 54.7955C22.811 54.6775 23.047 54.4121 23.0765 53.9696C23.165 53.1143 23.2829 52.2884 23.3419 51.433C23.3714 51.0791 23.4894 50.8431 23.7549 50.6367C23.9908 50.4597 24.2268 50.3712 24.5217 50.4302C25.4066 50.5482 26.2915 50.6367 27.1763 50.6956C27.5893 50.7251 27.8547 50.5482 28.0612 50.1647C28.3856 49.4863 28.7691 48.8374 29.1525 48.1591C29.3295 47.8346 29.359 47.5102 29.123 47.1857C28.5626 46.4483 28.0022 45.7109 27.4123 44.9736C27.2648 44.7966 27.2058 44.6196 27.2353 44.3542C27.2353 43.8822 27.4123 43.5578 27.8252 43.3218C27.9727 43.2333 28.1202 43.1154 28.2382 42.9974C28.7101 42.5844 29.2115 42.1715 29.6834 41.7881C30.0079 41.5226 30.0964 41.1982 29.9489 40.7852C29.7129 40.0773 29.5359 39.3989 29.359 38.6911C29.241 38.2191 28.9755 37.9537 28.5331 37.8947C27.7662 37.8062 26.9993 37.6587 26.2325 37.6292C25.731 37.5997 25.3771 37.4523 25.1411 37.0098C25.0527 36.8329 24.9937 36.6854 24.9937 36.5084C25.0822 35.5646 25.1706 34.6207 25.2591 33.6769C25.2886 33.2344 25.0821 32.9395 24.7282 32.733C24.1088 32.3791 23.4599 32.0251 22.87 31.6417C22.4571 31.3762 22.1031 31.4057 21.7492 31.6712C21.1298 32.1431 20.5104 32.615 19.9205 33.1459C19.5665 33.4704 19.2126 33.6179 18.7407 33.4999C18.5637 33.4409 18.4457 33.4114 18.3277 33.2639C17.9738 32.792 17.6493 32.3496 17.2659 31.9071C17.0004 31.5532 16.676 31.2287 16.381 30.9338C16.1746 30.6978 15.9091 30.6683 15.6142 30.7568C14.9063 30.9633 14.1984 31.1992 13.461 31.3467C12.9301 31.4647 12.6941 31.7597 12.6646 32.2316C12.5761 33.1459 12.4582 34.0603 12.3697 34.9747C12.3697 35.0631 12.3697 35.1811 12.3107 35.2401C11.9567 35.5056 11.7208 35.8595 11.1604 35.771C10.305 35.6235 9.44964 35.5646 8.59427 35.4761C8.15184 35.4171 7.85689 35.6235 7.65042 36.0365C7.32597 36.6854 6.94253 37.3343 6.58859 37.9832C6.38212 38.3371 6.38212 38.6616 6.61809 38.986C7.20799 39.7529 7.7979 40.4903 8.35831 41.2571C8.4173 41.3456 8.50578 41.4341 8.50578 41.4931C8.44679 41.9355 8.50578 42.4075 8.03386 42.7614C7.32597 43.2628 6.70657 43.8527 6.02818 44.4132C5.73323 44.6786 5.64474 44.9736 5.76272 45.3865C5.96919 46.0649 6.17566 46.7728 6.35263 47.5102ZM16.617 38.75C18.9471 38.1012 21.3952 39.5169 22.0441 41.8766C22.7225 44.2362 21.3362 46.7138 19.0356 47.3627C16.7055 48.0116 14.2574 46.5958 13.6085 44.2362C12.9301 41.8766 14.2869 39.3989 16.617 38.75Z" fill="#750AAF"/>
<path d="M32.6919 51.2855C32.5444 51.079 32.3674 50.8725 32.2199 50.6661C32.102 50.5186 31.9545 50.3711 31.807 50.2236C31.7185 50.1351 31.6005 50.1057 31.4531 50.1351C31.1286 50.2236 30.8042 50.3416 30.4797 50.4006C30.2438 50.4596 30.1258 50.5776 30.0963 50.8135C30.0373 51.2265 30.0078 51.6394 29.9488 52.0523C29.9488 52.0818 29.9488 52.1408 29.9193 52.1703C29.7718 52.2883 29.6539 52.4653 29.3884 52.4063C29.005 52.3473 28.6215 52.3178 28.2086 52.2883C28.0021 52.2588 27.8841 52.3473 27.7662 52.5538C27.6187 52.8487 27.4417 53.1437 27.2942 53.4386C27.2057 53.5861 27.2057 53.7631 27.3237 53.9106C27.5892 54.2645 27.8546 54.5889 28.1201 54.9429C28.1496 54.9724 28.1791 55.0314 28.1791 55.0609C28.1496 55.2673 28.1791 55.4738 27.9726 55.6213C27.6482 55.8572 27.3532 56.1227 27.0583 56.3882C26.9108 56.5061 26.8813 56.6536 26.9403 56.8306C27.0583 57.155 27.1468 57.4795 27.2057 57.8334C27.2647 58.0399 27.3827 58.1284 27.5597 58.1579C27.9136 58.2169 28.2676 58.2759 28.6215 58.2759C28.8575 58.2759 29.0345 58.3643 29.1524 58.5708C29.1819 58.6298 29.2114 58.6888 29.2114 58.7773C29.1819 59.1607 29.1229 59.5147 29.0934 59.8981C29.0934 60.0161 29.0934 60.1341 29.0934 60.2815C29.1524 60.3405 29.2114 60.429 29.2999 60.488C29.5949 60.665 29.8898 60.8125 30.1848 61.0189C30.3617 61.1369 30.5387 61.1369 30.6862 60.9894C30.9516 60.783 31.2466 60.547 31.5121 60.311C31.689 60.1636 31.8365 60.1046 32.043 60.1636C32.1315 60.1931 32.1905 60.1931 32.2199 60.2815C32.3674 60.488 32.5444 60.6945 32.6919 60.9009C32.8099 61.0484 32.9573 61.2254 33.1048 61.3729C33.1933 61.4614 33.3113 61.4909 33.4293 61.4319C33.7537 61.3434 34.1076 61.2254 34.4616 61.1369C34.6681 61.0779 34.786 60.9599 34.8155 60.7535C34.845 60.37 34.904 59.9866 34.9335 59.6031C34.9335 59.4557 34.9925 59.3377 35.14 59.2492C35.258 59.1607 35.3464 59.1312 35.4939 59.1607C35.9069 59.2197 36.2903 59.2492 36.7032 59.2787C36.8802 59.3082 37.0277 59.2197 37.1162 59.0427C37.2636 58.7478 37.4406 58.4233 37.6176 58.1284C37.7061 57.9809 37.7061 57.8334 37.6176 57.686C37.3521 57.332 37.0867 57.0076 36.8212 56.6831C36.7622 56.5946 36.7327 56.5061 36.7327 56.4177C36.7327 56.2112 36.8212 56.0637 36.9982 55.9457C37.0572 55.9162 37.1162 55.8572 37.2047 55.7983C37.4111 55.6213 37.6471 55.4148 37.8536 55.2378C38.001 55.1199 38.0305 54.9724 37.9715 54.7659C37.883 54.4415 37.7651 54.117 37.7061 53.7926C37.6471 53.5861 37.5291 53.4681 37.3226 53.4386C36.9687 53.3796 36.6148 53.3206 36.2608 53.3206C36.0248 53.3206 35.8774 53.2322 35.7594 53.0552C35.7004 52.9667 35.6709 52.9077 35.7004 52.8192C35.7594 52.3768 35.7889 51.9639 35.8184 51.5214C35.8479 51.315 35.7299 51.197 35.5824 51.1085C35.2875 50.961 34.9925 50.784 34.7271 50.6071C34.5501 50.4891 34.3731 50.4891 34.2256 50.6366C33.9307 50.843 33.6652 51.079 33.3998 51.315C33.2228 51.4624 33.0753 51.5214 32.8688 51.4624C32.8099 51.4034 32.7509 51.3739 32.6919 51.2855ZM34.4321 55.2378C34.7271 56.3292 34.1076 57.45 33.0458 57.7449C31.984 58.0399 30.8632 57.391 30.5682 56.3292C30.2733 55.2378 30.8927 54.117 31.9545 53.8221C33.0163 53.5271 34.1371 54.1465 34.4321 55.2378Z" fill="#750AAF"/>
</svg>
